<?xml version="1.0" standalone="no"?>
<!DOCTYPE svg PUBLIC "-//W3C//DTD SVG 20010904//EN"
 "http://www.w3.org/TR/2001/REC-SVG-20010904/DTD/svg10.dtd">
<svg version="1.0" xmlns="http://www.w3.org/2000/svg"
 width="48.000000pt" height="48.000000pt" viewBox="0 0 48.000000 48.000000"
 preserveAspectRatio="xMidYMid meet">

<g transform="translate(0.000000,48.000000) scale(0.100000,-0.100000)"
fill="#000000" stroke="none">
<path d="M190 443 c-8 -3 -37 -26 -64 -50 -26 -23 -52 -43 -56 -43 -15 0 -32
-60 -27 -92 4 -18 10 -57 15 -87 10 -61 45 -101 87 -101 14 0 43 -9 65 -21 52
-27 80 -20 143 37 27 24 53 44 57 44 15 0 32 60 27 92 -4 18 -10 57 -15 87
-10 61 -45 101 -88 101 -13 0 -41 9 -61 20 -38 20 -56 23 -83 13z m65 -29 c13
-5 7 -13 -29 -35 l-46 -29 0 -65 c0 -63 -1 -65 -20 -55 -17 9 -20 21 -20 76 0
56 4 68 25 89 24 25 57 31 90 19z m99 -35 c24 -11 54 -64 43 -75 -3 -3 -25 6
-49 20 l-43 25 -50 -29 c-59 -35 -65 -36 -65 -10 0 13 17 29 53 50 57 33 74
36 111 19z m-187 -170 c53 -29 56 -32 38 -45 -16 -12 -23 -11 -54 7 -51 30
-91 75 -91 103 0 13 10 36 23 52 l22 29 3 -57 3 -57 56 -32z m226 50 c34 -36
34 -69 2 -106 l-24 -28 -1 57 0 57 -56 32 c-52 29 -55 33 -39 45 16 12 24 10
54 -7 20 -12 48 -34 64 -50z m-122 21 c29 -16 26 -67 -6 -82 -38 -17 -75 3
-75 41 0 43 39 63 81 41z m69 -106 c0 -56 -4 -68 -25 -89 -24 -25 -57 -31 -90
-19 -13 5 -7 13 29 35 l46 29 0 65 c0 63 1 65 20 55 17 -9 20 -21 20 -76z
m-50 -4 c0 -13 -17 -29 -52 -50 -58 -33 -75 -36 -112 -19 -24 11 -54 64 -43
75 3 3 25 -6 49 -20 l44 -25 49 29 c60 35 65 36 65 10z"/>
</g>
</svg>
